<svg width="48" height="52" viewBox="0 0 48 52" fill="none" xmlns="http://www.w3.org/2000/svg">
<path fill-rule="evenodd" clip-rule="evenodd" d="M20.4472 29.4566C20.4613 29.4707 20.475 29.4845 20.4882 29.4977C20.8508 29.8591 21.2417 30.152 21.6612 30.3771C22.0138 30.5712 22.3865 30.7166 22.7796 30.8137V33.8273H15.8577C15.8075 33.8276 15.7576 33.8276 15.7077 33.8273C15.7009 33.8273 15.6942 33.8273 15.6872 33.8273H15.5372C14.8298 33.811 14.1726 33.6747 13.5662 33.4183L20.4472 29.4566ZM25.2142 16.8088C25.7644 17.1078 26.278 17.4943 26.7554 17.9679C27.2061 18.4178 27.5789 18.8996 27.874 19.4136C28.115 19.2207 28.3739 19.0684 28.6513 18.9566C29.0379 18.798 29.4581 18.7185 29.9129 18.718C30.8291 18.7157 31.611 19.0362 32.2591 19.6795C32.2964 19.7166 32.3328 19.7553 32.3681 19.7954L27.5536 22.5634C27.5454 22.549 27.5362 22.5353 27.5262 22.5225C27.5115 22.5162 27.4978 22.5095 27.4854 22.502C27.276 22.2944 27.0574 22.11 26.8305 21.9497C26.3339 21.5973 25.7953 21.3497 25.2142 21.2065V16.8088ZM9.27643 18.9906C8.60752 19.657 7.84592 20.0932 6.99186 20.2998V31.7065C7.841 31.9124 8.59803 32.3424 9.26283 32.9954C9.2708 33.0026 9.27994 33.0092 9.29014 33.0156C9.30268 33.0265 9.31639 33.0379 9.33103 33.0497L11.4451 31.8293C10.6156 30.8423 10.1995 29.6854 10.1972 28.3591C10.2007 27.0836 10.5872 25.9654 11.3565 25.0045C11.495 24.8322 11.6449 24.6641 11.8066 24.4998C12.8182 23.4927 14.0276 22.9634 15.435 22.9111C15.4337 22.8229 15.4337 22.7342 15.435 22.6452C15.435 22.5932 15.435 22.5409 15.435 22.4883L19.2199 24.6701C19.164 24.8836 19.1231 25.1042 19.0971 25.3315C19.0649 25.5498 19.0466 25.775 19.0426 26.0065C19.0454 26.477 19.1045 26.9248 19.2199 27.3498L11.4588 31.8293C11.5687 31.9632 11.687 32.0928 11.8135 32.2179C11.8717 32.2765 11.9307 32.3332 11.9908 32.3883C12.4715 32.835 12.9965 33.1759 13.5661 33.4111L10.5314 35.1633C10.6495 35.5845 10.7133 36.0276 10.7224 36.4929C10.7225 36.502 10.7225 36.511 10.7224 36.5204C10.7131 36.9795 10.6516 37.416 10.5382 37.8293L20.4406 43.5361C20.4562 43.5225 20.4723 43.5089 20.4883 43.4952L20.4951 43.4883C21.1631 42.8291 21.927 42.3951 22.7866 42.186V33.8201H25.2144V30.8065C26.0661 30.5998 26.8257 30.1636 27.4923 29.4974C27.5028 29.4918 27.5143 29.4873 27.5264 29.4838C27.5372 29.4698 27.5485 29.4562 27.5605 29.4428L34.4416 33.4179C33.7902 33.6903 33.081 33.8267 32.3137 33.8269C32.3068 33.8269 32.3003 33.8269 32.2936 33.8269H25.2145V42.1859C26.066 42.3965 26.8251 42.8307 27.4924 43.4882C27.5006 43.4932 27.5095 43.4978 27.5198 43.5018C27.5318 43.5142 27.5431 43.5276 27.5539 43.5428L37.4627 37.8427C37.3428 37.4153 37.2817 36.9651 37.2787 36.4926C37.2817 36.0159 37.3407 35.5612 37.4562 35.1289L34.4417 33.4108C34.9535 33.1936 35.4309 32.8939 35.8741 32.5108C35.9801 32.4189 36.0847 32.3212 36.1875 32.2176C36.314 32.0922 36.4344 31.9623 36.5491 31.829L28.7747 27.3359C28.8859 26.9226 28.9449 26.4837 28.9521 26.02C28.9521 26.0109 28.9521 26.0018 28.9521 25.9928C28.9505 25.9097 28.9482 25.8279 28.9449 25.7473C28.9226 25.3744 28.8657 25.0175 28.7747 24.6768L33.228 22.1131C33.2206 22.4036 33.18 22.6809 33.1051 22.9449C34.2815 23.1047 35.3093 23.6229 36.1875 24.4996C36.6791 24.9882 37.0591 25.5245 37.3264 26.1086C37.637 26.7927 37.7915 27.5426 37.7901 28.3587C37.7915 29.6845 37.3824 30.8416 36.5626 31.829L38.6633 33.0358C38.6821 33.019 38.7006 33.0031 38.7178 32.9882V32.9812C39.3852 32.3257 40.1444 31.894 40.9957 31.6857V20.3063C40.144 20.0961 39.3846 19.6642 38.7178 19.0108V19.004C38.7022 18.9929 38.6861 18.9815 38.6702 18.9699L33.2281 22.113C33.2281 22.0803 33.2281 22.0484 33.2281 22.0176C33.23 21.5635 33.1526 21.143 32.9961 20.7562C32.8533 20.4052 32.6443 20.0825 32.3687 19.788L37.4563 16.863C37.341 16.4354 37.2819 15.9854 37.2788 15.5129C37.2818 15.0453 37.3408 14.5997 37.4563 14.1766L27.5402 8.46309C27.5265 8.47703 27.5126 8.49074 27.4994 8.50398C26.8304 9.16785 26.0689 9.60203 25.2147 9.80629V16.8017C24.7366 16.5393 24.2321 16.3438 23.7008 16.2153C23.4038 16.1445 23.0992 16.0946 22.787 16.0654V9.81977C21.9248 9.61012 21.1585 9.17148 20.4888 8.50398C20.4757 8.49098 20.462 8.47715 20.4478 8.46309L10.5385 14.1766C10.6521 14.5904 10.7135 15.0266 10.7228 15.4858C10.7229 15.4947 10.7229 15.5038 10.7228 15.5129C10.7135 15.9812 10.6497 16.4267 10.5317 16.8494L15.9808 19.972C16.3008 19.2437 16.7668 18.5755 17.3789 17.9673C17.5387 17.8084 17.7024 17.6584 17.8698 17.5173C19.0617 16.5257 20.4597 16.0302 22.0639 16.0311C22.3074 16.032 22.5462 16.0456 22.7799 16.072V21.2061C22.3354 21.3133 21.9173 21.4814 21.5251 21.7107C21.1589 21.9205 20.8155 22.1842 20.4954 22.5016C20.4852 22.5089 20.4736 22.5157 20.4613 22.5221C20.4532 22.5329 20.444 22.5442 20.4341 22.5562L15.974 19.9789C15.815 20.3404 15.6899 20.7154 15.5989 21.1039C15.499 21.5447 15.4445 22.0039 15.4353 22.4813L9.3042 18.9562C9.30068 18.9643 9.29611 18.9712 9.29072 18.9767C9.28475 18.9808 9.28006 18.9852 9.27643 18.9906ZM20.4813 1.52254L20.4949 1.51574C21.2888 0.731758 22.2186 0.268164 23.2842 0.124844C23.5142 0.0937892 23.7506 0.0779688 23.9935 0.0771484C25.3548 0.0800781 26.5209 0.559609 27.4921 1.51574L27.5055 1.52254C28.4581 2.48137 28.9425 3.64047 28.9582 4.99973C28.9584 5.00957 28.9584 5.02094 28.9582 5.03383C28.9467 5.4993 28.8806 5.94238 28.7604 6.36344L38.6627 12.0634C38.6805 12.0502 38.6987 12.0365 38.7172 12.0225V12.002C39.6863 11.0518 40.8573 10.5767 42.2294 10.5771C43.5883 10.5755 44.7524 11.0505 45.721 12.002L45.7347 12.0292C46.1007 12.3957 46.3983 12.7912 46.6281 13.2156C46.9888 13.904 47.173 14.6676 47.1804 15.5065C47.1806 15.5155 47.1806 15.5247 47.1804 15.5337C47.166 16.898 46.6816 18.0548 45.7281 19.0042C45.0576 19.6742 44.2937 20.1128 43.4365 20.3201V31.6859C44.2909 31.8902 45.0526 32.322 45.7209 32.9814L45.7346 32.9952C46.6847 33.9562 47.167 35.1176 47.1803 36.4791C47.1805 36.4858 47.1805 36.4927 47.1803 36.4996C47.1723 37.2715 47.0131 37.9763 46.7028 38.6133C46.468 39.1082 46.1428 39.5625 45.7281 39.9769C44.7572 40.9454 43.5913 41.4296 42.2294 41.4293C40.8566 41.4285 39.6861 40.9443 38.7172 39.9769C38.7001 39.962 38.684 39.9484 38.6696 39.9359L28.7604 45.6429C28.8805 46.0595 28.9467 46.5026 28.9582 46.9724C28.9584 46.9852 28.9584 46.9964 28.9582 47.0065C28.9414 48.3708 28.4549 49.5275 27.4988 50.4769C26.6799 51.2966 25.7206 51.7691 24.6208 51.8951C24.4172 51.9191 24.208 51.9306 23.9934 51.9292C22.623 51.9282 21.4545 51.4442 20.4881 50.4769C19.5306 49.5236 19.0508 48.3621 19.0492 46.9927C19.0499 46.5203 19.1067 46.0704 19.2197 45.6429L9.33092 39.9359C9.31791 39.9508 9.3042 39.9646 9.29002 39.9769C9.28463 39.9807 9.27994 39.9849 9.27631 39.9905C8.30354 40.9592 7.13506 41.4432 5.771 41.4429C4.39838 41.4418 3.22756 40.9579 2.25877 39.9905C1.77174 39.5046 1.41045 38.9637 1.17455 38.3677C0.940527 37.7958 0.822285 37.173 0.819824 36.4996C0.822754 35.1348 1.3024 33.9716 2.25877 33.0088L2.26568 32.9952C2.93365 32.3406 3.69736 31.911 4.55717 31.7064V20.2998C3.69478 20.0923 2.92873 19.6559 2.25877 18.9906C1.30135 18.0374 0.821699 16.8761 0.819824 15.5066C0.820059 14.624 1.01775 13.8241 1.41326 13.1068C1.63533 12.7138 1.91717 12.3459 2.25877 12.0021L2.26568 11.9886C3.23248 11.0382 4.40119 10.5631 5.771 10.5636C7.13014 10.562 8.29393 11.0371 9.26272 11.9886C9.27068 12.0004 9.27983 12.0116 9.29002 12.0227C9.30713 12.0357 9.32295 12.0493 9.3376 12.0636L19.2196 6.36355C19.1066 5.93863 19.0497 5.49074 19.049 5.02047C19.0499 3.65359 19.5273 2.48758 20.4813 1.52254Z" fill="white"/>
</svg>
