<svg width="40" height="40" viewBox="0 0 40 40" fill="none" xmlns="http://www.w3.org/2000/svg">
<g clip-path="url(#clip0_672_922)">
<path fill-rule="evenodd" clip-rule="evenodd" d="M16.2502 0H23.7502L25.2349 5.9387C26.8192 6.52875 28.2769 7.37888 29.5559 8.4372L35.4457 6.7524L39.1957 13.2476L34.7934 17.5041C34.9294 18.3158 35.0002 19.1497 35.0002 20C35.0002 20.8503 34.9294 21.6841 34.7934 22.4958L39.1957 26.7525L35.4457 33.2475L29.5559 31.5628C28.2769 32.621 26.8192 33.4713 25.2349 34.0613L23.7502 40H16.2502L14.7655 34.0613C13.1812 33.4713 11.7235 32.621 10.4444 31.5628L4.55469 33.2475L0.804688 26.7525L5.20689 22.4958C5.07094 21.6841 5.00019 20.8503 5.00019 20C5.00019 19.1497 5.07094 18.3158 5.20689 17.5041L0.804688 13.2476L4.55469 6.7524L10.4444 8.4372C11.7235 7.37888 13.1812 6.52875 14.7655 5.9387L16.2502 0ZM20.0002 25C22.7616 25 25.0002 22.7614 25.0002 20C25.0002 17.2386 22.7616 15 20.0002 15C17.2388 15 15.0002 17.2386 15.0002 20C15.0002 22.7614 17.2388 25 20.0002 25Z" fill="white"/>
</g>
<defs>
<clipPath id="clip0_672_922">
<rect width="40" height="40" fill="white"/>
</clipPath>
</defs>
</svg>
