<svg width="41" height="40" viewBox="0 0 41 40" fill="none" xmlns="http://www.w3.org/2000/svg">
<g clip-path="url(#clip0_659_958)">
<path d="M20.5 3.75035C24.8098 3.75035 28.943 5.4624 31.9905 8.50986C35.038 11.5573 36.75 15.6906 36.75 20.0003C36.75 20.4976 36.9475 20.9745 37.2992 21.3262C37.6508 21.6778 38.1277 21.8753 38.625 21.8753C39.1223 21.8753 39.5992 21.6778 39.9508 21.3262C40.3025 20.9745 40.5 20.4976 40.5 20.0003C40.5003 16.0912 39.3549 12.2677 37.2055 9.00245C35.0562 5.73722 31.997 3.17347 28.4063 1.62812C24.8156 0.082775 20.8507 -0.376404 17.0018 0.307348C13.1529 0.9911 9.58876 2.78781 6.75 5.47535V3.12535C6.75 2.62807 6.55246 2.15115 6.20083 1.79952C5.84919 1.44789 5.37228 1.25035 4.875 1.25035C4.37772 1.25035 3.90081 1.44789 3.54917 1.79952C3.19754 2.15115 3 2.62807 3 3.12535V10.6253C3 11.6603 3.84 12.5003 4.875 12.5003H12.375C12.8723 12.5003 13.3492 12.3028 13.7008 11.9512C14.0525 11.5995 14.25 11.1226 14.25 10.6253C14.25 10.1281 14.0525 9.65115 13.7008 9.29952C13.3492 8.94789 12.8723 8.75035 12.375 8.75035H8.775C10.2896 7.16727 12.1096 5.90792 14.125 5.0485C16.1403 4.18908 18.3091 3.74746 20.5 3.75035ZM2.375 18.1253C1.87772 18.1253 1.40081 18.3229 1.04917 18.6745C0.697544 19.0262 0.5 19.5031 0.5 20.0003C0.499744 23.9095 1.64509 27.733 3.79446 30.9982C5.94383 34.2635 9.00297 36.8272 12.5937 38.3726C16.1844 39.9179 20.1493 40.3771 23.9982 39.6933C27.8471 39.0096 31.4112 37.2129 34.25 34.5253V36.8753C34.25 37.3726 34.4475 37.8495 34.7992 38.2012C35.1508 38.5528 35.6277 38.7503 36.125 38.7503C36.6223 38.7503 37.0992 38.5528 37.4508 38.2012C37.8025 37.8495 38 37.3726 38 36.8753V29.3753C38 28.8781 37.8025 28.4012 37.4508 28.0495C37.0992 27.6979 36.6223 27.5003 36.125 27.5003H28.625C28.1277 27.5003 27.6508 27.6979 27.2992 28.0495C26.9475 28.4012 26.75 28.8781 26.75 29.3753C26.75 29.8726 26.9475 30.3495 27.2992 30.7012C27.6508 31.0528 28.1277 31.2503 28.625 31.2503H32.225C29.98 33.5899 27.0865 35.2043 23.9166 35.886C20.7467 36.5678 17.4453 36.2856 14.437 35.0758C11.4288 33.8661 8.85119 31.784 7.0358 29.0975C5.22041 26.411 4.25022 23.2427 4.25 20.0003C4.25 19.5031 4.05246 19.0262 3.70083 18.6745C3.34919 18.3229 2.87228 18.1253 2.375 18.1253Z" fill="#009900"/>
</g>
<defs>
<clipPath id="clip0_659_958">
<rect width="40" height="40" fill="white" transform="translate(0.5)"/>
</clipPath>
</defs>
</svg>
